<svg width="20" height="20" viewBox="0 0 20 20" fill="none" xmlns="http://www.w3.org/2000/svg">
<path fill-rule="evenodd" clip-rule="evenodd" d="M10.0001 1.04169C7.81395 1.04169 6.04175 2.81389 6.04175 5.00002C6.04175 7.18615 7.81395 8.95835 10.0001 8.95835C12.1862 8.95835 13.9584 7.18615 13.9584 5.00002C13.9584 2.81389 12.1862 1.04169 10.0001 1.04169ZM7.29175 5.00002C7.29175 3.50425 8.50431 2.29169 10.0001 2.29169C11.4959 2.29169 12.7084 3.50425 12.7084 5.00002C12.7084 6.49579 11.4959 7.70835 10.0001 7.70835C8.50431 7.70835 7.29175 6.49579 7.29175 5.00002Z" fill="#121212" fill-opacity="0.6"/>
<path fill-rule="evenodd" clip-rule="evenodd" d="M10.0001 10.2084C8.30064 10.2084 6.73135 10.6006 5.56521 11.267C4.41675 11.9233 3.54175 12.9251 3.54175 14.1667C3.54175 15.4082 4.41675 16.4101 5.56521 17.0664C6.73135 17.7327 8.30064 18.125 10.0001 18.125C11.6995 18.125 13.2688 17.7327 14.435 17.0664C15.5834 16.4101 16.4584 15.4082 16.4584 14.1667C16.4584 12.9251 15.5834 11.9233 14.435 11.267C13.2688 10.6006 11.6995 10.2084 10.0001 10.2084ZM4.79175 14.1667C4.79175 13.5673 5.22259 12.9025 6.18538 12.3523C7.13049 11.8123 8.47787 11.4584 10.0001 11.4584C11.5223 11.4584 12.8697 11.8123 13.8148 12.3523C14.7776 12.9025 15.2084 13.5673 15.2084 14.1667C15.2084 14.7661 14.7776 15.4309 13.8148 15.9811C12.8697 16.5211 11.5223 16.875 10.0001 16.875C8.47787 16.875 7.13049 16.5211 6.18538 15.9811C5.22259 15.4309 4.79175 14.7661 4.79175 14.1667Z" fill="#121212" fill-opacity="0.6"/>
</svg>
