<svg width="20" height="20" viewBox="0 0 20 20" fill="none" xmlns="http://www.w3.org/2000/svg">
<path fill-rule="evenodd" clip-rule="evenodd" d="M10.0001 1.04163C7.81395 1.04163 6.04175 2.81383 6.04175 4.99996C6.04175 7.18609 7.81395 8.95829 10.0001 8.95829C12.1862 8.95829 13.9584 7.18609 13.9584 4.99996C13.9584 2.81383 12.1862 1.04163 10.0001 1.04163ZM7.29175 4.99996C7.29175 3.50419 8.50431 2.29163 10.0001 2.29163C11.4959 2.29163 12.7084 3.50419 12.7084 4.99996C12.7084 6.49573 11.4959 7.70829 10.0001 7.70829C8.50431 7.70829 7.29175 6.49573 7.29175 4.99996Z" fill="#121212" fill-opacity="0.6"/>
<path fill-rule="evenodd" clip-rule="evenodd" d="M10.0001 10.2083C8.30064 10.2083 6.73135 10.6006 5.56521 11.267C4.41675 11.9232 3.54175 12.9251 3.54175 14.1666C3.54175 15.4082 4.41675 16.41 5.56521 17.0663C6.73135 17.7327 8.30064 18.125 10.0001 18.125C11.6995 18.125 13.2688 17.7327 14.435 17.0663C15.5834 16.41 16.4584 15.4082 16.4584 14.1666C16.4584 12.9251 15.5834 11.9232 14.435 11.267C13.2688 10.6006 11.6995 10.2083 10.0001 10.2083ZM4.79175 14.1666C4.79175 13.5672 5.22259 12.9024 6.18538 12.3523C7.13049 11.8122 8.47787 11.4583 10.0001 11.4583C11.5223 11.4583 12.8697 11.8122 13.8148 12.3523C14.7776 12.9024 15.2084 13.5672 15.2084 14.1666C15.2084 14.766 14.7776 15.4308 13.8148 15.981C12.8697 16.5211 11.5223 16.875 10.0001 16.875C8.47787 16.875 7.13049 16.5211 6.18538 15.981C5.22259 15.4308 4.79175 14.766 4.79175 14.1666Z" fill="#121212" fill-opacity="0.6"/>
</svg>
