<svg width="21" height="24" viewBox="0 0 21 24" fill="none" xmlns="http://www.w3.org/2000/svg">
<g clip-path="url(#clip0_4_906)">
<path d="M20.0352 18.4829C19.6848 19.2938 19.27 20.0402 18.7894 20.7264C18.1343 21.6619 17.5979 22.3094 17.1845 22.669C16.5437 23.2593 15.8572 23.5615 15.122 23.5787C14.5942 23.5787 13.9577 23.4283 13.2168 23.1232C12.4734 22.8194 11.7903 22.669 11.1656 22.669C10.5105 22.669 9.80795 22.8194 9.05645 23.1232C8.3038 23.4283 7.69748 23.5873 7.2339 23.6031C6.52888 23.6332 5.82615 23.3223 5.12471 22.669C4.67701 22.2779 4.11703 21.6075 3.4462 20.6576C2.72645 19.6433 2.13471 18.4672 1.67114 17.1262C1.17466 15.6779 0.925781 14.2753 0.925781 12.9175C0.925781 11.3621 1.26134 10.0206 1.93346 8.89643C2.46169 7.99345 3.16442 7.28115 4.04394 6.75825C4.92346 6.23534 5.87378 5.96888 6.8972 5.95183C7.45718 5.95183 8.19152 6.12532 9.10408 6.46628C10.0141 6.80839 10.5984 6.98188 10.8545 6.98188C11.0461 6.98188 11.6952 6.77902 12.7955 6.37459C13.8361 5.99953 14.7143 5.84424 15.4338 5.90541C17.3834 6.063 18.848 6.83274 19.8221 8.21951C18.0785 9.27765 17.216 10.7597 17.2332 12.6609C17.2489 14.1418 17.7853 15.3741 18.8395 16.3526C19.3172 16.8068 19.8507 17.1577 20.4443 17.407C20.3156 17.7809 20.1797 18.1391 20.0352 18.4829ZM15.564 0.86031C15.564 2.02103 15.1406 3.10479 14.2967 4.10791C13.2783 5.30042 12.0464 5.9895 10.7106 5.88077C10.6936 5.74152 10.6838 5.59496 10.6838 5.44096C10.6838 4.32667 11.1681 3.13416 12.0281 2.15912C12.4575 1.66544 13.0036 1.25495 13.6659 0.927499C14.3267 0.604931 14.9518 0.426544 15.5396 0.395996C15.5568 0.551166 15.564 0.706346 15.564 0.860295V0.86031Z" fill="black"/>
</g>
<defs>
<clipPath id="clip0_4_906">
<rect width="19.5185" height="23.2091" fill="white" transform="translate(0.925781 0.395508)"/>
</clipPath>
</defs>
</svg>
