<svg width="25" height="25" viewBox="0 0 25 25" fill="none" xmlns="http://www.w3.org/2000/svg">
<path d="M20.5234 11.5224H22.5234C22.5234 6.39244 18.6504 2.52344 13.5134 2.52344V4.52344C17.5754 4.52344 20.5234 7.46644 20.5234 11.5224Z" fill="white"/>
<path d="M13.5235 8.52343C15.6265 8.52343 16.5235 9.42043 16.5235 11.5234H18.5235C18.5235 8.29843 16.7485 6.52343 13.5235 6.52343V8.52343ZM16.9455 13.9664C16.7533 13.7918 16.5008 13.6986 16.2413 13.7067C15.9817 13.7147 15.7355 13.8232 15.5545 14.0094L13.1615 16.4704C12.5855 16.3604 11.4275 15.9994 10.2355 14.8104C9.04348 13.6174 8.68248 12.4564 8.57548 11.8844L11.0345 9.49043C11.2209 9.30956 11.3296 9.06325 11.3376 8.80364C11.3457 8.54402 11.2524 8.29147 11.0775 8.09943L7.38248 4.03643C7.20752 3.84379 6.96435 3.72694 6.70463 3.71069C6.4449 3.69445 6.18907 3.78009 5.99148 3.94943L3.82148 5.81043C3.64859 5.98395 3.54539 6.21488 3.53148 6.45943C3.51648 6.70943 3.23048 12.6314 7.82248 17.2254C11.8285 21.2304 16.8465 21.5234 18.2285 21.5234C18.4305 21.5234 18.5545 21.5174 18.5875 21.5154C18.832 21.5017 19.0628 21.3981 19.2355 21.2244L21.0955 19.0534C21.2649 18.856 21.3508 18.6002 21.3347 18.3405C21.3186 18.0808 21.202 17.8375 21.0095 17.6624L16.9455 13.9664Z" fill="white"/>
</svg>
