<svg width="25" height="25" viewBox="0 0 25 25" fill="none" xmlns="http://www.w3.org/2000/svg">
<path d="M12.5234 2.02344C10.3362 2.02602 8.23928 2.89604 6.69267 4.44266C5.14605 5.98927 4.27603 8.08619 4.27345 10.2734C4.27083 12.0609 4.85468 13.7998 5.93545 15.2234C5.93545 15.2234 6.16045 15.5197 6.1972 15.5624L12.5234 23.0234L18.8527 15.5587C18.8857 15.5189 19.1114 15.2234 19.1114 15.2234L19.1122 15.2212C20.1924 13.7981 20.776 12.06 20.7734 10.2734C20.7709 8.08619 19.9008 5.98927 18.3542 4.44266C16.8076 2.89604 14.7107 2.02602 12.5234 2.02344ZM12.5234 13.2734C11.9301 13.2734 11.3501 13.0975 10.8567 12.7678C10.3634 12.4382 9.97887 11.9697 9.75181 11.4215C9.52474 10.8733 9.46533 10.2701 9.58109 9.68817C9.69685 9.10622 9.98257 8.57167 10.4021 8.15212C10.8217 7.73256 11.3562 7.44684 11.9382 7.33108C12.5201 7.21533 13.1233 7.27474 13.6715 7.5018C14.2197 7.72886 14.6882 8.11338 15.0179 8.60673C15.3475 9.10007 15.5234 9.68009 15.5234 10.2734C15.5225 11.0688 15.2061 11.8313 14.6437 12.3937C14.0813 12.9561 13.3188 13.2724 12.5234 13.2734Z" fill="white"/>
</svg>
