<svg width="20" height="8" viewBox="0 0 20 8" fill="none" xmlns="http://www.w3.org/2000/svg">
<path fill-rule="evenodd" clip-rule="evenodd" d="M16 6C14.897 6 14 5.103 14 4C14 2.897 14.897 2 16 2C17.103 2 18 2.897 18 4C18 5.103 17.103 6 16 6ZM2 4C2 2.897 2.897 2 4 2C5.103 2 6 2.897 6 4C6 5.103 5.103 6 4 6C2.897 6 2 5.103 2 4ZM16 0C13.794 0 12 1.794 12 4C12 4.731 12.212 5.409 12.557 6H7.443C7.788 5.409 8 4.731 8 4C8 1.794 6.206 0 4 0C1.794 0 0 1.794 0 4C0 6.206 1.794 8 4 8H16C18.206 8 20 6.206 20 4C20 1.794 18.206 0 16 0Z" fill="white"/>
</svg>
