<svg width="18" height="20" viewBox="0 0 18 20" fill="none" xmlns="http://www.w3.org/2000/svg">
<path fill-rule="evenodd" clip-rule="evenodd" d="M13 17.9877H15.99L16 9.61175L8.998 2.41975L2.006 9.57075L2 17.9877H5V10.9877C5 10.4347 5.447 9.98775 6 9.98775H12C12.552 9.98775 13 10.4347 13 10.9877V17.9877ZM11 17.9877H7V11.9877H11V17.9877ZM17.424 8.17275L9.715 0.28875C9.338 -0.09625 8.662 -0.09625 8.285 0.28875L0.575 8.17375C0.21 8.54875 0 9.07275 0 9.61175V17.9877C0 19.0907 0.847 19.9877 1.888 19.9877H6H12H16.111C17.152 19.9877 18 19.0907 18 17.9877V9.61175C18 9.07275 17.79 8.54875 17.424 8.17275V8.17275Z" fill="white"/>
</svg>
