<svg width="20" height="20" viewBox="0 0 20 20" fill="none" xmlns="http://www.w3.org/2000/svg">
<path fill-rule="evenodd" clip-rule="evenodd" d="M8.2864 2.70831H11.7138C13.2452 2.7083 14.4583 2.70829 15.4076 2.83593C16.3846 2.96728 17.1754 3.24405 17.799 3.86768C18.4227 4.49132 18.6994 5.28211 18.8308 6.25913C18.9584 7.20847 18.9584 8.4215 18.9584 9.95297V10.047C18.9584 11.5785 18.9584 12.7915 18.8308 13.7408C18.6994 14.7179 18.4227 15.5086 17.799 16.1323C17.1754 16.7559 16.3846 17.0327 15.4076 17.164C14.4583 17.2917 13.2452 17.2917 11.7138 17.2916H8.28641C6.75494 17.2917 5.54191 17.2917 4.59256 17.164C3.61554 17.0327 2.82475 16.7559 2.20112 16.1323C1.57748 15.5086 1.30072 14.7179 1.16936 13.7408C1.04172 12.7915 1.04174 11.5785 1.04175 10.047V9.95297C1.04174 8.4215 1.04172 7.20847 1.16936 6.25913C1.30072 5.28211 1.57748 4.49132 2.20112 3.86768C2.82475 3.24405 3.61554 2.96728 4.59256 2.83593C5.54191 2.70829 6.75493 2.7083 8.2864 2.70831ZM4.75912 4.07478C3.92071 4.1875 3.43768 4.39889 3.085 4.75157C2.73233 5.10424 2.52094 5.58728 2.40821 6.42569C2.29308 7.28207 2.29175 8.41096 2.29175 9.99998C2.29175 11.589 2.29308 12.7179 2.40821 13.5743C2.52094 14.4127 2.73233 14.8957 3.085 15.2484C3.43768 15.6011 3.92071 15.8125 4.75912 15.9252C5.61551 16.0403 6.7444 16.0416 8.33341 16.0416H11.6667C13.2558 16.0416 14.3847 16.0403 15.241 15.9252C16.0794 15.8125 16.5625 15.6011 16.9152 15.2484C17.2678 14.8957 17.4792 14.4127 17.5919 13.5743C17.7071 12.7179 17.7084 11.589 17.7084 9.99998C17.7084 8.41096 17.7071 7.28207 17.5919 6.42569C17.4792 5.58728 17.2678 5.10424 16.9152 4.75157C16.5625 4.39889 16.0794 4.1875 15.241 4.07478C14.3847 3.95964 13.2558 3.95831 11.6667 3.95831H8.33342C6.7444 3.95831 5.61551 3.95964 4.75912 4.07478ZM4.51994 6.26653C4.74092 6.00136 5.13502 5.96553 5.4002 6.18651L7.19928 7.68574C7.97674 8.33363 8.51652 8.78199 8.97223 9.07509C9.41337 9.35881 9.71252 9.45404 10.0001 9.45404C10.2876 9.45404 10.5868 9.35881 11.0279 9.07509C11.4836 8.78199 12.0234 8.33363 12.8009 7.68574L14.6 6.18651C14.8651 5.96553 15.2592 6.00136 15.4802 6.26653C15.7012 6.5317 15.6654 6.92581 15.4002 7.14679L13.5698 8.67213C12.8312 9.28767 12.2325 9.78658 11.7041 10.1264C11.1537 10.4804 10.6176 10.704 10.0001 10.704C9.38252 10.704 8.84648 10.4804 8.29606 10.1264C7.76768 9.78658 7.16901 9.28768 6.43038 8.67213L4.59997 7.14679C4.33479 6.92581 4.29897 6.5317 4.51994 6.26653Z" fill="#121212" fill-opacity="0.6"/>
</svg>
