<svg width="28" height="28" viewBox="0 0 28 28" fill="none" xmlns="http://www.w3.org/2000/svg">
<path fill-rule="evenodd" clip-rule="evenodd" d="M13.2703 23.3333H14.7298V22.4384C14.7298 21.3476 15.4006 20.3676 16.4378 19.9394C17.5111 19.4926 18.6836 19.7119 19.4559 20.4889L20.0848 21.1201L21.1208 20.0841L20.4849 19.4494C19.7114 18.6771 19.4933 17.5058 19.9284 16.4663C19.9284 16.4663 19.9296 16.4651 19.9296 16.4639L19.9424 16.4313C20.3671 15.4011 21.3483 14.7291 22.4391 14.7291H23.3328V13.2708H22.4391C21.3483 13.2708 20.3671 12.5999 19.9401 11.5628C19.4909 10.4894 19.7114 9.31692 20.4884 8.54342L21.1196 7.91459L20.0848 6.87975L19.4489 7.51559C18.6766 8.28792 17.5064 8.50609 16.4669 8.07209C15.4018 7.63225 14.7298 6.65225 14.7298 5.56142V4.66659H13.2703V5.56142C13.2703 6.65225 12.5994 7.63225 11.5623 8.06042C10.4901 8.50959 9.3176 8.28909 8.5441 7.51092L7.91526 6.87975L6.87926 7.91575L7.5151 8.55042C8.28743 9.32275 8.50676 10.4941 8.0716 11.5336C7.63293 12.5988 6.65176 13.2708 5.56093 13.2708H4.6661V14.7291H5.56093C6.65176 14.7291 7.63293 15.3999 8.05993 16.4371C8.5091 17.5104 8.2886 18.6829 7.5116 19.4564L6.88043 20.0853L7.91526 21.1201L8.5511 20.4843C9.32343 19.7119 10.4936 19.4938 11.5331 19.9278C12.5983 20.3676 13.2703 21.3476 13.2703 22.4384V23.3333ZM15.0996 25.6666H12.8923C11.8143 25.6666 10.9369 24.7893 10.9369 23.7113V22.4384C10.9369 22.2669 10.8004 22.1491 10.6721 22.0966C10.5041 22.0278 10.3244 22.0138 10.2008 22.1339L9.30243 23.0334C8.5371 23.7964 7.29343 23.7988 6.52926 23.0334L4.96593 21.4701C4.59493 21.0991 4.39193 20.6068 4.39193 20.0818C4.3931 19.5579 4.59726 19.0656 4.96943 18.6946L5.86543 17.8021C5.98793 17.6796 5.9751 17.4999 5.92026 17.3704C5.85026 17.1989 5.7336 17.0624 5.56093 17.0624H4.29626C3.2136 17.0624 2.33276 16.1828 2.33276 15.1001V12.8928C2.33276 11.8136 3.2101 10.9374 4.28926 10.9374H5.56093C5.73243 10.9374 5.85026 10.7998 5.90276 10.6714C5.97276 10.5034 5.98676 10.3226 5.86543 10.2013L4.96593 9.30292C4.20293 8.53642 4.20293 7.29275 4.96593 6.52975L6.52926 4.96642C6.90026 4.59542 7.39143 4.39242 7.91526 4.39242H7.9176C8.44143 4.39242 8.93493 4.59659 9.30476 4.96875L10.1973 5.86592C10.3198 5.98959 10.5006 5.97559 10.6301 5.92075C10.8004 5.84959 10.9369 5.73292 10.9369 5.56142V4.29675C10.9369 3.21409 11.8178 2.33325 12.9004 2.33325H15.1078C16.1858 2.33325 17.0631 3.21059 17.0631 4.28859V5.56142C17.0631 5.73292 17.1996 5.85075 17.3279 5.90325C17.4971 5.97325 17.6768 5.98842 17.7993 5.86592L18.6976 4.96642C19.4629 4.20342 20.7066 4.20109 21.4708 4.96642L23.0353 6.53092C23.4063 6.90075 23.6093 7.39309 23.6081 7.91809C23.6081 8.44075 23.4039 8.93425 23.0318 9.30409L22.1346 10.1978C22.0121 10.3203 22.0249 10.4999 22.0798 10.6294C22.1498 10.8009 22.2664 10.9374 22.4391 10.9374H23.7038C24.7864 10.9374 25.6661 11.8171 25.6661 12.8998V15.1071C25.6661 16.1863 24.7899 17.0624 23.7108 17.0624H22.4391C22.2676 17.0624 22.1498 17.2001 22.0973 17.3284C22.0961 17.3296 22.0821 17.3646 22.0809 17.3669C22.0273 17.4964 22.0133 17.6773 22.1346 17.7986L23.0341 18.6969C23.7971 19.4634 23.7971 20.7071 23.0341 21.4701L21.4708 23.0334C21.0998 23.4044 20.6086 23.6074 20.0848 23.6074H20.0824C19.5586 23.6074 19.0651 23.4033 18.6953 23.0311L17.8028 22.1339C17.6803 22.0114 17.4983 22.0254 17.3699 22.0791C17.1996 22.1503 17.0631 22.2669 17.0631 22.4384V23.7031C17.0631 24.7858 16.1823 25.6666 15.0996 25.6666ZM14 12.2499C13.0352 12.2499 12.25 13.0351 12.25 13.9999C12.25 14.9648 13.0352 15.7499 14 15.7499C14.9648 15.7499 15.75 14.9648 15.75 13.9999C15.75 13.0351 14.9648 12.2499 14 12.2499ZM14 18.0833C11.7483 18.0833 9.91668 16.2516 9.91668 13.9999C9.91668 11.7483 11.7483 9.91659 14 9.91659C16.2517 9.91659 18.0833 11.7483 18.0833 13.9999C18.0833 16.2516 16.2517 18.0833 14 18.0833Z" fill="white"/>
</svg>
