<svg width="28" height="28" viewBox="0 0 28 28" fill="none" xmlns="http://www.w3.org/2000/svg">
<path fill-rule="evenodd" clip-rule="evenodd" d="M13.2703 23.3334H14.7298V22.4385C14.7298 21.3477 15.4006 20.3677 16.4378 19.9395C17.5111 19.4927 18.6836 19.712 19.4559 20.489L20.0848 21.1202L21.1208 20.0842L20.4849 19.4495C19.7114 18.6772 19.4933 17.5059 19.9284 16.4664C19.9284 16.4664 19.9296 16.4652 19.9296 16.464L19.9424 16.4314C20.3671 15.4012 21.3483 14.7292 22.4391 14.7292H23.3328V13.2709H22.4391C21.3483 13.2709 20.3671 12.6 19.9401 11.5629C19.4909 10.4895 19.7114 9.31704 20.4884 8.54354L21.1196 7.91471L20.0848 6.87987L19.4489 7.51571C18.6766 8.28804 17.5064 8.50621 16.4669 8.07221C15.4018 7.63237 14.7298 6.65237 14.7298 5.56154V4.66671H13.2703V5.56154C13.2703 6.65237 12.5994 7.63237 11.5623 8.06054C10.4901 8.50971 9.3176 8.28921 8.5441 7.51104L7.91526 6.87987L6.87926 7.91587L7.5151 8.55054C8.28743 9.32287 8.50676 10.4942 8.0716 11.5337C7.63293 12.5989 6.65176 13.2709 5.56093 13.2709H4.6661V14.7292H5.56093C6.65176 14.7292 7.63293 15.4 8.05993 16.4372C8.5091 17.5105 8.2886 18.683 7.5116 19.4565L6.88043 20.0854L7.91526 21.1202L8.5511 20.4844C9.32343 19.712 10.4936 19.4939 11.5331 19.9279C12.5983 20.3677 13.2703 21.3477 13.2703 22.4385V23.3334ZM15.0996 25.6667H12.8923C11.8143 25.6667 10.9369 24.7894 10.9369 23.7114V22.4385C10.9369 22.267 10.8004 22.1492 10.6721 22.0967C10.5041 22.0279 10.3244 22.0139 10.2008 22.134L9.30243 23.0335C8.5371 23.7965 7.29343 23.7989 6.52926 23.0335L4.96593 21.4702C4.59493 21.0992 4.39193 20.6069 4.39193 20.0819C4.3931 19.558 4.59726 19.0657 4.96943 18.6947L5.86543 17.8022C5.98793 17.6797 5.9751 17.5 5.92026 17.3705C5.85026 17.199 5.7336 17.0625 5.56093 17.0625H4.29626C3.2136 17.0625 2.33276 16.1829 2.33276 15.1002V12.8929C2.33276 11.8137 3.2101 10.9375 4.28926 10.9375H5.56093C5.73243 10.9375 5.85026 10.7999 5.90276 10.6715C5.97276 10.5035 5.98676 10.3227 5.86543 10.2014L4.96593 9.30304C4.20293 8.53654 4.20293 7.29287 4.96593 6.52987L6.52926 4.96654C6.90026 4.59554 7.39143 4.39254 7.91526 4.39254H7.9176C8.44143 4.39254 8.93493 4.59671 9.30476 4.96887L10.1973 5.86604C10.3198 5.98971 10.5006 5.97571 10.6301 5.92087C10.8004 5.84971 10.9369 5.73304 10.9369 5.56154V4.29687C10.9369 3.21421 11.8178 2.33337 12.9004 2.33337H15.1078C16.1858 2.33337 17.0631 3.21071 17.0631 4.28871V5.56154C17.0631 5.73304 17.1996 5.85087 17.3279 5.90337C17.4971 5.97337 17.6768 5.98854 17.7993 5.86604L18.6976 4.96654C19.4629 4.20354 20.7066 4.20121 21.4708 4.96654L23.0353 6.53104C23.4063 6.90087 23.6093 7.39321 23.6081 7.91821C23.6081 8.44087 23.4039 8.93437 23.0318 9.30421L22.1346 10.1979C22.0121 10.3204 22.0249 10.5 22.0798 10.6295C22.1498 10.801 22.2664 10.9375 22.4391 10.9375H23.7038C24.7864 10.9375 25.6661 11.8172 25.6661 12.8999V15.1072C25.6661 16.1864 24.7899 17.0625 23.7108 17.0625H22.4391C22.2676 17.0625 22.1498 17.2002 22.0973 17.3285C22.0961 17.3297 22.0821 17.3647 22.0809 17.367C22.0273 17.4965 22.0133 17.6774 22.1346 17.7987L23.0341 18.697C23.7971 19.4635 23.7971 20.7072 23.0341 21.4702L21.4708 23.0335C21.0998 23.4045 20.6086 23.6075 20.0848 23.6075H20.0824C19.5586 23.6075 19.0651 23.4034 18.6953 23.0312L17.8028 22.134C17.6803 22.0115 17.4983 22.0255 17.3699 22.0792C17.1996 22.1504 17.0631 22.267 17.0631 22.4385V23.7032C17.0631 24.7859 16.1823 25.6667 15.0996 25.6667ZM14 12.25C13.0352 12.25 12.25 13.0352 12.25 14C12.25 14.9649 13.0352 15.75 14 15.75C14.9648 15.75 15.75 14.9649 15.75 14C15.75 13.0352 14.9648 12.25 14 12.25ZM14 18.0834C11.7483 18.0834 9.91668 16.2517 9.91668 14C9.91668 11.7484 11.7483 9.91671 14 9.91671C16.2517 9.91671 18.0833 11.7484 18.0833 14C18.0833 16.2517 16.2517 18.0834 14 18.0834Z" fill="white"/>
</svg>
