<svg width="461" height="120" viewBox="0 0 461 120" fill="none" xmlns="http://www.w3.org/2000/svg">
<path d="M460 83.7549C460 83.7549 451.032 75.8238 444.667 75.8238C438.301 75.8238 435.699 83.7549 429.333 83.7549C422.968 83.7549 419.87 79.3573 414 75.8238C407.865 72.1308 405.169 67.1948 398.667 65.1736C392.814 63.3543 389.186 63.3543 383.333 65.1736C376.831 67.1948 374.653 75.8238 368 75.8238C361.347 75.8238 359.319 65.1736 352.667 65.1736C346.014 65.1736 343.973 76.4177 337.333 75.8238C329.819 75.1518 329.221 62.115 322 59.0554C316.257 56.622 312.655 59.0554 306.667 59.0554C300.679 59.0554 297.268 57.9154 291.333 59.0554C285.173 60.2386 282.19 65.9703 276 65.1736C269.263 64.3066 267.395 54.6165 260.667 53.6169C254.531 52.7054 251.458 58.0015 245.333 59.0554C239.388 60.0785 235.988 59.0554 230 59.0554C224.012 59.0554 220.612 60.0785 214.667 59.0554C208.542 58.0015 205.502 53.6169 199.333 53.6169C193.165 53.6169 190.124 58.0015 184 59.0554C178.055 60.0785 174.519 57.2361 168.667 59.0554C162.165 61.0766 159.835 67.6844 153.333 69.7056C147.481 71.5249 143.988 69.7056 138 69.7056C132.012 69.7056 128.519 71.5249 122.667 69.7056C116.165 67.6844 113.835 61.0766 107.333 59.0554C101.481 57.2361 97.9454 60.0785 92 59.0554C85.8756 58.0015 82.6328 55.8643 76.6666 53.6169C70.6551 51.3525 67.1883 50.491 61.3333 47.4987C55.164 44.3458 52.5491 37.7549 46 37.7549C39.4509 37.7549 37.2157 47.4987 30.6667 47.4987C24.1176 47.4987 21.7532 39.6125 15.3333 37.7549C9.46348 36.0564 5.96046e-06 37.7549 5.96046e-06 37.7549" stroke="#009DFF" stroke-width="2" stroke-linecap="round"/>
<circle cx="3" cy="39" r="4" fill="#009DFF"/>
<circle cx="34" cy="45" r="4" fill="#009DFF"/>
<circle cx="59" cy="44" r="4" fill="#009DFF"/>
<circle cx="83" cy="55" r="4" fill="#009DFF"/>
<circle cx="108" cy="61" r="4" fill="#009DFF"/>
<circle cx="139" cy="69" r="4" fill="#009DFF"/>
<circle cx="164" cy="62" r="4" fill="#009DFF"/>
<circle cx="189" cy="57" r="4" fill="#009DFF"/>
<circle cx="213" cy="57" r="4" fill="#009DFF"/>
<circle cx="245" cy="59" r="4" fill="#009DFF"/>
<circle cx="269" cy="59" r="4" fill="#009DFF"/>
<circle cx="294" cy="58" r="4" fill="#009DFF"/>
<circle cx="325" cy="60" r="4" fill="#009DFF"/>
<circle cx="350" cy="67" r="4" fill="#009DFF"/>
<circle cx="375" cy="70" r="4" fill="#009DFF"/>
<circle cx="399" cy="67" r="4" fill="#009DFF"/>
<circle cx="431" cy="82" r="4" fill="#009DFF"/>
<circle cx="456" cy="80" r="4" fill="#009DFF"/>
</svg>
