<svg width="634" height="253" viewBox="0 0 634 253" fill="none" xmlns="http://www.w3.org/2000/svg">
<path d="M633 150.755C633 150.755 620.679 142.824 611.933 142.824C603.188 142.824 599.612 150.755 590.867 150.755C582.121 150.755 577.864 146.357 569.8 142.824C561.371 139.131 557.666 134.195 548.733 132.174C540.693 130.354 535.707 130.354 527.667 132.174C518.734 134.195 515.74 142.824 506.6 142.824C497.46 142.824 494.674 132.174 485.533 132.174C476.393 132.174 473.589 143.418 464.467 142.824C454.142 142.152 453.321 129.115 443.4 126.055C435.51 123.622 430.56 126.055 422.333 126.055C414.106 126.055 409.421 124.915 401.267 126.055C392.803 127.239 388.705 132.97 380.2 132.174C370.944 131.307 368.377 121.616 359.133 120.617C350.704 119.705 346.481 125.001 338.067 126.055C329.898 127.078 325.227 126.055 317 126.055C308.773 126.055 304.102 127.078 295.933 126.055C287.519 125.001 283.341 120.617 274.867 120.617C266.392 120.617 262.214 125.001 253.8 126.055C245.631 127.078 240.774 124.236 232.733 126.055C223.8 128.077 220.6 134.684 211.667 136.706C203.626 138.525 198.827 136.706 190.6 136.706C182.373 136.706 177.574 138.525 169.533 136.706C160.6 134.684 157.4 128.077 148.467 126.055C140.426 124.236 135.569 127.078 127.4 126.055C118.986 125.001 114.53 122.864 106.333 120.617C98.0739 118.353 93.3108 117.491 85.2667 114.499C76.7905 111.346 73.1979 104.755 64.2 104.755C55.2022 104.755 52.1312 114.499 43.1333 114.499C34.1355 114.499 30.887 106.612 22.0667 104.755C14.002 103.056 1.00001 104.755 1.00001 104.755" stroke="#009DFF" stroke-width="2" stroke-linecap="round"/>
<circle cx="7" cy="106" r="4" fill="#009DFF"/>
<circle cx="50" cy="112" r="4" fill="#009DFF"/>
<circle cx="80" cy="111" r="4" fill="#009DFF"/>
<circle cx="116" cy="122" r="4" fill="#009DFF"/>
<circle cx="152" cy="128" r="4" fill="#009DFF"/>
<circle cx="194" cy="136" r="4" fill="#009DFF"/>
<circle cx="225" cy="129" r="4" fill="#009DFF"/>
<circle cx="261" cy="124" r="4" fill="#009DFF"/>
<circle cx="291" cy="124" r="4" fill="#009DFF"/>
<circle cx="335" cy="126" r="4" fill="#009DFF"/>
<circle cx="371" cy="126" r="4" fill="#009DFF"/>
<circle cx="407" cy="125" r="4" fill="#009DFF"/>
<circle cx="449" cy="127" r="4" fill="#009DFF"/>
<circle cx="480" cy="134" r="4" fill="#009DFF"/>
<circle cx="516" cy="137" r="4" fill="#009DFF"/>
<circle cx="546" cy="134" r="4" fill="#009DFF"/>
<circle cx="595" cy="149" r="4" fill="#009DFF"/>
<circle cx="626" cy="147" r="4" fill="#009DFF"/>
</svg>
